<svg width="20" height="20" viewBox="0 0 20 20" fill="none" xmlns="http://www.w3.org/2000/svg">
<path d="M18.3144 16.6667V10.145C18.3144 9.69128 18.2218 9.24232 18.0423 8.82563C17.8627 8.40893 17.6 8.03328 17.2702 7.72168L11.126 1.91501C10.8166 1.62245 10.4069 1.45944 9.98104 1.45944C9.55519 1.45944 9.14549 1.62245 8.83604 1.91501L2.69187 7.72168C2.36206 8.03328 2.09933 8.40893 1.91979 8.82563C1.74024 9.24232 1.64766 9.69128 1.64771 10.145V16.6667C1.64771 17.1087 1.8233 17.5326 2.13586 17.8452C2.44842 18.1578 2.87234 18.3333 3.31437 18.3333H16.6477C17.0897 18.3333 17.5137 18.1578 17.8262 17.8452C18.1388 17.5326 18.3144 17.1087 18.3144 16.6667Z" stroke="#6F6E73" stroke-width="2" stroke-linecap="round" stroke-linejoin="round"/>
</svg>
