<svg width="27" height="26" viewBox="0 0 27 26" fill="none" xmlns="http://www.w3.org/2000/svg">
<path d="M14.762 5.41993L13.1738 5.41668C9.55114 5.40801 6.40623 8.35143 6.38131 11.9167V16.0225C6.38131 16.8783 6.27298 17.7136 5.80606 18.4253L5.49514 18.8998C5.02173 19.6192 5.53089 20.5833 6.38131 20.5833H21.5805C22.4309 20.5833 22.939 19.6192 22.4666 18.8998L22.1557 18.4253C21.6899 17.7136 21.5805 16.8773 21.5805 16.0214V11.9178C21.5371 8.35143 18.3846 5.42859 14.762 5.41993Z" fill="#BEBEC2"/>
<path d="M17.231 20.5833C17.231 21.4453 16.8885 22.2719 16.2791 22.8814C15.6696 23.4909 14.8429 23.8333 13.981 23.8333C13.119 23.8333 12.2924 23.4909 11.6829 22.8814C11.0734 22.2719 10.731 21.4453 10.731 20.5833" fill="#6F6E73"/>
<path d="M13.981 2.16666C14.5556 2.16666 15.1067 2.39493 15.5131 2.80126C15.9194 3.20759 16.1477 3.75869 16.1477 4.33332V5.41666H11.8143V4.33332C11.8143 3.75869 12.0426 3.20759 12.4489 2.80126C12.8553 2.39493 13.4064 2.16666 13.981 2.16666Z" fill="#6F6E73"/>
<circle cx="20.481" cy="9.75" r="3.75" fill="#DD736D" stroke="#F5F5F5"/>
</svg>
