<svg width="27" height="26" viewBox="0 0 27 26" fill="none" xmlns="http://www.w3.org/2000/svg">
<path d="M16.1476 3.54141C16.1476 2.78199 15.5323 2.16666 14.7728 2.16666H13.1901C12.4296 2.16666 11.8142 2.78199 11.8142 3.54141C11.8142 4.16757 11.3852 4.70491 10.8013 4.93457C10.7092 4.97141 10.6172 5.01041 10.5273 5.04941C9.952 5.29857 9.26842 5.22274 8.82425 4.77966C8.56646 4.52205 8.21694 4.37735 7.8525 4.37735C7.48806 4.37735 7.13854 4.52205 6.88075 4.77966L5.76058 5.89982C5.50298 6.15761 5.35827 6.50714 5.35827 6.87157C5.35827 7.23601 5.50298 7.58554 5.76058 7.84332C6.20475 8.28749 6.28058 8.96999 6.02925 9.54632C5.98976 9.63702 5.95184 9.7284 5.9155 9.82041C5.68583 10.4043 5.1485 10.8333 4.52233 10.8333C3.76292 10.8333 3.14758 11.4487 3.14758 12.2081V13.7919C3.14758 14.5513 3.76292 15.1667 4.52233 15.1667C5.1485 15.1667 5.68583 15.5957 5.9155 16.1796C5.95233 16.2717 5.99133 16.3637 6.02925 16.4537C6.2795 17.0289 6.20367 17.7125 5.76058 18.1567C5.50298 18.4144 5.35827 18.764 5.35827 19.1284C5.35827 19.4928 5.50298 19.8424 5.76058 20.1002L6.88075 21.2203C7.13854 21.4779 7.48806 21.6226 7.8525 21.6226C8.21694 21.6226 8.56646 21.4779 8.82425 21.2203C9.26842 20.7762 9.95092 20.7003 10.5273 20.9506C10.6172 20.9907 10.7092 21.0286 10.8013 21.0654C11.3852 21.2951 11.8142 21.8324 11.8142 22.4586C11.8142 23.218 12.4296 23.8333 13.189 23.8333H14.7728C15.5323 23.8333 16.1476 23.218 16.1476 22.4586C16.1476 21.8324 16.5766 21.2951 17.1605 21.0643C17.2526 21.0286 17.3447 20.9907 17.4346 20.9517C18.0098 20.7003 18.6934 20.7772 19.1365 21.2203C19.2642 21.348 19.4157 21.4494 19.5826 21.5185C19.7494 21.5876 19.9282 21.6232 20.1088 21.6232C20.2894 21.6232 20.4682 21.5876 20.635 21.5185C20.8018 21.4494 20.9534 21.348 21.0811 21.2203L22.2013 20.1002C22.4589 19.8424 22.6036 19.4928 22.6036 19.1284C22.6036 18.764 22.4589 18.4144 22.2013 18.1567C21.7571 17.7125 21.6813 17.03 21.9315 16.4537C21.9716 16.3637 22.0095 16.2717 22.0463 16.1796C22.276 15.5957 22.8133 15.1667 23.4395 15.1667C24.1989 15.1667 24.8143 14.5513 24.8143 13.7919V12.2092C24.8143 11.4497 24.1989 10.8344 23.4395 10.8344C22.8133 10.8344 22.276 10.4054 22.0452 9.82149C22.009 9.72947 21.971 9.63809 21.9315 9.54741C21.6823 8.97216 21.7582 8.28857 22.2013 7.84441C22.4589 7.58662 22.6036 7.23709 22.6036 6.87266C22.6036 6.50822 22.4589 6.15869 22.2013 5.90091L21.0811 4.78074C20.8233 4.52314 20.4738 4.37843 20.1093 4.37843C19.7449 4.37843 19.3954 4.52314 19.1376 4.78074C18.6934 5.22491 18.0109 5.30074 17.4346 5.05049C17.3439 5.01063 17.2525 4.97235 17.1605 4.93566C16.5766 4.70491 16.1476 4.16757 16.1476 3.54249V3.54141Z" fill="#BEBEC2"/>
<path d="M18.3143 13C18.3143 14.1493 17.8577 15.2515 17.045 16.0641C16.2324 16.8768 15.1302 17.3333 13.9809 17.3333C12.8316 17.3333 11.7294 16.8768 10.9168 16.0641C10.1041 15.2515 9.64758 14.1493 9.64758 13C9.64758 11.8507 10.1041 10.7485 10.9168 9.93586C11.7294 9.1232 12.8316 8.66666 13.9809 8.66666C15.1302 8.66666 16.2324 9.1232 17.045 9.93586C17.8577 10.7485 18.3143 11.8507 18.3143 13Z" fill="#6F6E73"/>
</svg>
