<svg width="22" height="21" viewBox="0 0 22 21" fill="none" xmlns="http://www.w3.org/2000/svg">
<path d="M9.88032 0.1L19.7793 1.515L21.1933 11.415L12.0013 20.607C11.8138 20.7945 11.5595 20.8998 11.2943 20.8998C11.0292 20.8998 10.7748 20.7945 10.5873 20.607L0.687318 10.707C0.499847 10.5195 0.394531 10.2652 0.394531 10C0.394531 9.73484 0.499847 9.48053 0.687318 9.293L9.88032 0.1ZM12.7083 8.586C12.8941 8.77169 13.1146 8.91897 13.3573 9.01944C13.5999 9.11991 13.86 9.1716 14.1227 9.17155C14.3853 9.17151 14.6454 9.11973 14.888 9.01917C15.1307 8.91862 15.3511 8.77126 15.5368 8.5855C15.7225 8.39975 15.8698 8.17924 15.9703 7.93656C16.0707 7.69388 16.1224 7.4338 16.1224 7.17115C16.1223 6.9085 16.0705 6.64843 15.97 6.40579C15.8694 6.16315 15.7221 5.94269 15.5363 5.757C15.3506 5.57131 15.1301 5.42403 14.8874 5.32356C14.6447 5.22309 14.3846 5.1714 14.122 5.17145C13.5915 5.17154 13.0828 5.38235 12.7078 5.7575C12.3328 6.13265 12.1222 6.64141 12.1223 7.17185C12.1224 7.7023 12.3332 8.21098 12.7083 8.586Z" fill="white"/>
</svg>
